<svg xmlns="http://www.w3.org/2000/svg" xmlns:xlink="http://www.w3.org/1999/xlink" width="800" zoomAndPan="magnify" viewBox="0 0 600 449.999984" height="600" preserveAspectRatio="xMidYMid meet" version="1.0"><defs><clipPath id="f5d2913291"><path d="M 139.050781 45 L 460.800781 45 L 460.800781 209 L 139.050781 209 Z M 139.050781 45 " clip-rule="nonzero"/></clipPath></defs><path fill="#97bf0f" d="M 458.292969 174.890625 L 433.246094 206.109375 L 299.972656 99.085938 L 166.902344 206.199219 L 141.820312 175.007812 L 268.023438 73.425781 L 299.941406 47.730469 L 331.890625 73.390625 L 384.367188 115.53125 L 433.007812 154.585938 Z M 458.292969 174.890625 " fill-opacity="1" fill-rule="nonzero"/><g clip-path="url(#f5d2913291)"><path fill="#ffffff" d="M 166.902344 208.664062 C 166.117188 208.664062 165.476562 208.355469 164.980469 207.742188 L 139.902344 176.554688 C 139.695312 176.300781 139.546875 176.015625 139.457031 175.703125 C 139.363281 175.386719 139.335938 175.070312 139.371094 174.742188 C 139.40625 174.417969 139.503906 174.113281 139.660156 173.824219 C 139.816406 173.539062 140.023438 173.292969 140.277344 173.089844 L 266.476562 71.507812 L 298.398438 45.808594 C 298.617188 45.632812 298.859375 45.5 299.121094 45.40625 C 299.386719 45.3125 299.660156 45.265625 299.941406 45.265625 C 300.222656 45.265625 300.496094 45.3125 300.761719 45.40625 C 301.023438 45.5 301.265625 45.632812 301.484375 45.808594 L 333.433594 71.46875 L 459.835938 172.96875 C 460.089844 173.175781 460.296875 173.421875 460.453125 173.707031 C 460.609375 173.992188 460.707031 174.300781 460.742188 174.625 C 460.777344 174.949219 460.75 175.269531 460.660156 175.582031 C 460.566406 175.898438 460.417969 176.179688 460.214844 176.4375 L 435.167969 207.65625 C 434.960938 207.910156 434.71875 208.117188 434.429688 208.273438 C 434.144531 208.429688 433.839844 208.527344 433.511719 208.5625 C 433.1875 208.597656 432.871094 208.570312 432.554688 208.476562 C 432.242188 208.386719 431.957031 208.238281 431.703125 208.035156 L 299.972656 102.25 L 168.445312 208.121094 C 167.996094 208.484375 167.480469 208.664062 166.902344 208.664062 Z M 145.285156 175.386719 L 167.277344 202.730469 L 298.425781 97.164062 C 298.644531 96.988281 298.886719 96.855469 299.152344 96.761719 C 299.417969 96.667969 299.6875 96.621094 299.96875 96.621094 C 300.25 96.621094 300.523438 96.664062 300.789062 96.757812 C 301.054688 96.851562 301.296875 96.988281 301.515625 97.164062 L 432.863281 202.644531 L 454.828125 175.269531 L 299.945312 50.894531 L 269.566406 75.347656 Z M 145.285156 175.386719 " fill-opacity="1" fill-rule="nonzero"/></g><path fill="#97bf0f" d="M 373.941406 47.730469 L 443.429688 47.730469 L 443.429688 77.183594 L 373.941406 77.183594 Z M 373.941406 47.730469 " fill-opacity="1" fill-rule="nonzero"/><path fill="#ffffff" d="M 443.429688 79.648438 L 373.941406 79.648438 C 373.613281 79.648438 373.300781 79.585938 373 79.460938 C 372.695312 79.335938 372.429688 79.15625 372.199219 78.925781 C 371.96875 78.695312 371.789062 78.429688 371.664062 78.125 C 371.539062 77.824219 371.476562 77.507812 371.476562 77.183594 L 371.476562 47.730469 C 371.476562 47.402344 371.539062 47.089844 371.664062 46.785156 C 371.789062 46.484375 371.96875 46.21875 372.199219 45.988281 C 372.429688 45.753906 372.695312 45.578125 373 45.453125 C 373.300781 45.328125 373.613281 45.265625 373.941406 45.265625 L 443.429688 45.265625 C 443.753906 45.265625 444.070312 45.328125 444.371094 45.453125 C 444.671875 45.578125 444.941406 45.753906 445.171875 45.988281 C 445.402344 46.21875 445.582031 46.484375 445.707031 46.785156 C 445.832031 47.089844 445.894531 47.402344 445.894531 47.730469 L 445.894531 77.183594 C 445.894531 77.507812 445.832031 77.824219 445.707031 78.125 C 445.582031 78.429688 445.402344 78.695312 445.171875 78.925781 C 444.941406 79.15625 444.671875 79.335938 444.371094 79.460938 C 444.070312 79.585938 443.753906 79.648438 443.429688 79.648438 Z M 376.40625 74.71875 L 440.964844 74.71875 L 440.964844 50.195312 L 376.40625 50.195312 Z M 376.40625 74.71875 " fill-opacity="1" fill-rule="nonzero"/><path fill="#97bf0f" d="M 433.007812 77.179688 L 433.007812 154.585938 L 384.367188 115.53125 L 384.367188 77.179688 Z M 433.007812 77.179688 " fill-opacity="1" fill-rule="nonzero"/><path fill="#ffffff" d="M 433.007812 157.054688 C 432.429688 157.054688 431.914062 156.871094 431.464844 156.511719 L 382.828125 117.453125 C 382.210938 116.960938 381.90625 116.320312 381.90625 115.53125 L 381.90625 77.179688 C 381.90625 76.855469 381.96875 76.539062 382.09375 76.238281 C 382.21875 75.933594 382.394531 75.667969 382.625 75.4375 C 382.859375 75.207031 383.125 75.027344 383.425781 74.902344 C 383.726562 74.777344 384.042969 74.714844 384.371094 74.714844 L 433.007812 74.714844 C 433.335938 74.714844 433.648438 74.777344 433.953125 74.902344 C 434.253906 75.027344 434.519531 75.207031 434.75 75.4375 C 434.980469 75.667969 435.160156 75.933594 435.285156 76.238281 C 435.410156 76.539062 435.472656 76.855469 435.472656 77.179688 L 435.472656 154.585938 C 435.472656 154.914062 435.410156 155.230469 435.285156 155.53125 C 435.160156 155.832031 434.980469 156.097656 434.75 156.332031 C 434.519531 156.5625 434.253906 156.738281 433.953125 156.863281 C 433.648438 156.992188 433.335938 157.054688 433.007812 157.054688 Z M 386.832031 114.347656 L 430.542969 149.445312 L 430.542969 79.644531 L 386.832031 79.644531 Z M 386.832031 114.347656 " fill-opacity="1" fill-rule="nonzero"/><path fill="#97bf0f" d="M 433.246094 206.109375 L 433.246094 377.320312 L 378.453125 377.320312 L 378.453125 350.753906 L 351.644531 350.753906 L 351.644531 377.320312 L 166.902344 377.320312 L 166.902344 206.195312 L 299.972656 99.085938 Z M 433.246094 206.109375 " fill-opacity="1" fill-rule="nonzero"/><path fill="#ffffff" d="M 433.246094 379.785156 L 378.453125 379.785156 C 378.125 379.785156 377.8125 379.722656 377.511719 379.597656 C 377.207031 379.472656 376.941406 379.292969 376.710938 379.0625 C 376.480469 378.832031 376.300781 378.566406 376.175781 378.261719 C 376.050781 377.960938 375.988281 377.644531 375.988281 377.320312 L 375.988281 353.21875 L 354.109375 353.21875 L 354.109375 377.320312 C 354.109375 377.644531 354.046875 377.960938 353.921875 378.261719 C 353.796875 378.566406 353.617188 378.832031 353.386719 379.0625 C 353.15625 379.292969 352.890625 379.472656 352.585938 379.597656 C 352.285156 379.722656 351.972656 379.785156 351.644531 379.785156 L 166.902344 379.785156 C 166.574219 379.785156 166.257812 379.722656 165.957031 379.597656 C 165.65625 379.472656 165.390625 379.292969 165.160156 379.0625 C 164.925781 378.832031 164.75 378.566406 164.625 378.261719 C 164.5 377.960938 164.4375 377.644531 164.4375 377.320312 L 164.4375 206.195312 C 164.4375 205.410156 164.742188 204.769531 165.355469 204.277344 L 298.425781 97.167969 C 298.644531 96.988281 298.886719 96.855469 299.152344 96.761719 C 299.417969 96.667969 299.691406 96.621094 299.972656 96.621094 C 300.253906 96.621094 300.523438 96.667969 300.789062 96.761719 C 301.054688 96.855469 301.296875 96.988281 301.515625 97.167969 L 434.789062 204.1875 C 435.402344 204.679688 435.710938 205.320312 435.710938 206.109375 L 435.710938 377.320312 C 435.710938 377.648438 435.648438 377.960938 435.523438 378.265625 C 435.398438 378.566406 435.21875 378.832031 434.988281 379.0625 C 434.757812 379.296875 434.492188 379.472656 434.1875 379.597656 C 433.886719 379.722656 433.570312 379.785156 433.246094 379.785156 Z M 380.917969 374.855469 L 430.78125 374.855469 L 430.78125 207.289062 L 299.972656 102.25 L 169.363281 207.378906 L 169.363281 374.855469 L 349.179688 374.855469 L 349.179688 350.753906 C 349.179688 350.429688 349.242188 350.113281 349.367188 349.8125 C 349.492188 349.507812 349.671875 349.242188 349.902344 349.011719 C 350.132812 348.78125 350.398438 348.601562 350.699219 348.476562 C 351.003906 348.351562 351.316406 348.289062 351.644531 348.289062 L 378.453125 348.289062 C 378.78125 348.289062 379.09375 348.351562 379.394531 348.476562 C 379.699219 348.601562 379.964844 348.78125 380.195312 349.011719 C 380.425781 349.242188 380.605469 349.507812 380.730469 349.8125 C 380.855469 350.113281 380.917969 350.429688 380.917969 350.753906 Z M 380.917969 374.855469 " fill-opacity="1" fill-rule="nonzero"/><path fill="#97bf0f" d="M 199.078125 218.28125 L 296.730469 218.28125 L 296.730469 377.320312 L 199.078125 377.320312 Z M 199.078125 218.28125 " fill-opacity="1" fill-rule="nonzero"/><path fill="#ffffff" d="M 296.730469 379.785156 L 199.078125 379.785156 C 198.753906 379.785156 198.4375 379.722656 198.136719 379.597656 C 197.832031 379.472656 197.566406 379.292969 197.335938 379.0625 C 197.105469 378.832031 196.925781 378.566406 196.800781 378.261719 C 196.675781 377.960938 196.613281 377.644531 196.613281 377.320312 L 196.613281 218.28125 C 196.613281 217.953125 196.675781 217.640625 196.800781 217.335938 C 196.925781 217.035156 197.105469 216.769531 197.335938 216.539062 C 197.566406 216.304688 197.832031 216.128906 198.136719 216.003906 C 198.4375 215.878906 198.753906 215.816406 199.078125 215.816406 L 296.730469 215.816406 C 297.058594 215.816406 297.371094 215.878906 297.671875 216.003906 C 297.976562 216.128906 298.242188 216.304688 298.472656 216.535156 C 298.703125 216.769531 298.882812 217.035156 299.007812 217.335938 C 299.132812 217.640625 299.195312 217.953125 299.195312 218.28125 L 299.195312 377.320312 C 299.195312 377.644531 299.132812 377.960938 299.007812 378.261719 C 298.882812 378.566406 298.703125 378.832031 298.472656 379.0625 C 298.242188 379.292969 297.976562 379.472656 297.671875 379.597656 C 297.371094 379.722656 297.058594 379.785156 296.730469 379.785156 Z M 201.542969 374.855469 L 294.265625 374.855469 L 294.265625 220.746094 L 201.542969 220.746094 Z M 201.542969 374.855469 " fill-opacity="1" fill-rule="nonzero"/><path fill="#97bf0f" d="M 329.34375 202.109375 L 400.757812 202.109375 L 400.757812 273.554688 L 329.34375 273.554688 Z M 329.34375 202.109375 " fill-opacity="1" fill-rule="nonzero"/><path fill="#ffffff" d="M 400.757812 276.019531 L 329.34375 276.019531 C 329.015625 276.019531 328.703125 275.957031 328.402344 275.832031 C 328.097656 275.707031 327.832031 275.527344 327.601562 275.296875 C 327.371094 275.066406 327.191406 274.800781 327.066406 274.496094 C 326.941406 274.195312 326.878906 273.882812 326.878906 273.554688 L 326.878906 202.109375 C 326.878906 201.78125 326.941406 201.46875 327.066406 201.164062 C 327.191406 200.863281 327.371094 200.597656 327.601562 200.367188 C 327.832031 200.132812 328.097656 199.957031 328.402344 199.832031 C 328.703125 199.707031 329.015625 199.644531 329.34375 199.644531 L 400.757812 199.644531 C 401.085938 199.644531 401.398438 199.707031 401.699219 199.832031 C 402.003906 199.957031 402.269531 200.132812 402.5 200.367188 C 402.730469 200.597656 402.910156 200.863281 403.035156 201.164062 C 403.160156 201.46875 403.222656 201.78125 403.222656 202.109375 L 403.222656 273.554688 C 403.222656 273.882812 403.160156 274.195312 403.035156 274.496094 C 402.910156 274.800781 402.730469 275.066406 402.5 275.296875 C 402.269531 275.527344 402.003906 275.707031 401.699219 275.832031 C 401.398438 275.957031 401.085938 276.019531 400.757812 276.019531 Z M 331.808594 271.089844 L 398.292969 271.089844 L 398.292969 204.574219 L 331.808594 204.574219 Z M 331.808594 271.089844 " fill-opacity="1" fill-rule="nonzero"/><path fill="#97bf0f" d="M 329.34375 202.109375 L 365.050781 202.109375 L 365.050781 273.554688 L 329.34375 273.554688 Z M 329.34375 202.109375 " fill-opacity="1" fill-rule="nonzero"/><path fill="#ffffff" d="M 365.050781 276.019531 L 329.34375 276.019531 C 329.015625 276.019531 328.703125 275.957031 328.402344 275.832031 C 328.097656 275.707031 327.832031 275.527344 327.601562 275.296875 C 327.371094 275.066406 327.191406 274.800781 327.066406 274.496094 C 326.941406 274.195312 326.878906 273.882812 326.878906 273.554688 L 326.878906 202.109375 C 326.878906 201.78125 326.941406 201.46875 327.066406 201.164062 C 327.191406 200.863281 327.371094 200.597656 327.601562 200.367188 C 327.832031 200.132812 328.097656 199.957031 328.402344 199.832031 C 328.703125 199.707031 329.015625 199.644531 329.34375 199.644531 L 365.050781 199.644531 C 365.378906 199.644531 365.691406 199.707031 365.992188 199.832031 C 366.296875 199.957031 366.5625 200.132812 366.792969 200.367188 C 367.023438 200.597656 367.203125 200.863281 367.328125 201.164062 C 367.453125 201.46875 367.515625 201.78125 367.515625 202.109375 L 367.515625 273.554688 C 367.515625 273.882812 367.453125 274.195312 367.328125 274.496094 C 367.203125 274.800781 367.023438 275.066406 366.792969 275.296875 C 366.5625 275.527344 366.296875 275.707031 365.992188 275.832031 C 365.691406 275.957031 365.378906 276.019531 365.050781 276.019531 Z M 331.808594 271.089844 L 362.585938 271.089844 L 362.585938 204.574219 L 331.808594 204.574219 Z M 331.808594 271.089844 " fill-opacity="1" fill-rule="nonzero"/><path fill="#97bf0f" d="M 329.34375 237.832031 L 400.757812 237.832031 L 400.757812 273.554688 L 329.34375 273.554688 Z M 329.34375 237.832031 " fill-opacity="1" fill-rule="nonzero"/><path fill="#ffffff" d="M 400.757812 276.019531 L 329.34375 276.019531 C 329.015625 276.019531 328.703125 275.957031 328.402344 275.832031 C 328.097656 275.707031 327.832031 275.527344 327.601562 275.296875 C 327.371094 275.066406 327.191406 274.800781 327.066406 274.496094 C 326.941406 274.195312 326.878906 273.882812 326.878906 273.554688 L 326.878906 237.832031 C 326.878906 237.503906 326.941406 237.191406 327.066406 236.886719 C 327.191406 236.585938 327.371094 236.320312 327.601562 236.089844 C 327.832031 235.855469 328.097656 235.679688 328.402344 235.554688 C 328.703125 235.429688 329.015625 235.367188 329.34375 235.367188 L 400.757812 235.367188 C 401.085938 235.367188 401.398438 235.429688 401.699219 235.554688 C 402.003906 235.679688 402.269531 235.855469 402.5 236.089844 C 402.730469 236.320312 402.910156 236.585938 403.035156 236.886719 C 403.160156 237.191406 403.222656 237.503906 403.222656 237.832031 L 403.222656 273.554688 C 403.222656 273.882812 403.160156 274.195312 403.035156 274.496094 C 402.910156 274.800781 402.730469 275.066406 402.5 275.296875 C 402.269531 275.527344 402.003906 275.707031 401.699219 275.832031 C 401.398438 275.957031 401.085938 276.019531 400.757812 276.019531 Z M 331.808594 271.089844 L 398.292969 271.089844 L 398.292969 240.296875 L 331.808594 240.296875 Z M 331.808594 271.089844 " fill-opacity="1" fill-rule="nonzero"/><path fill="#97bf0f" d="M 308.765625 301.707031 L 421.339844 301.707031 L 421.339844 350.753906 L 308.765625 350.753906 Z M 308.765625 301.707031 " fill-opacity="1" fill-rule="nonzero"/><path fill="#ffffff" d="M 421.339844 353.21875 L 308.765625 353.21875 C 308.4375 353.21875 308.121094 353.15625 307.820312 353.03125 C 307.519531 352.90625 307.253906 352.730469 307.019531 352.5 C 306.789062 352.265625 306.613281 352 306.488281 351.699219 C 306.363281 351.394531 306.300781 351.082031 306.300781 350.753906 L 306.300781 301.707031 C 306.300781 301.378906 306.363281 301.0625 306.488281 300.761719 C 306.613281 300.460938 306.789062 300.191406 307.019531 299.960938 C 307.253906 299.730469 307.519531 299.554688 307.820312 299.425781 C 308.121094 299.300781 308.4375 299.238281 308.765625 299.238281 L 421.339844 299.238281 C 421.667969 299.238281 421.980469 299.300781 422.28125 299.425781 C 422.585938 299.554688 422.851562 299.730469 423.082031 299.960938 C 423.3125 300.191406 423.492188 300.460938 423.617188 300.761719 C 423.742188 301.0625 423.804688 301.378906 423.804688 301.707031 L 423.804688 350.753906 C 423.804688 351.082031 423.742188 351.394531 423.617188 351.699219 C 423.492188 352 423.3125 352.265625 423.082031 352.5 C 422.851562 352.730469 422.585938 352.90625 422.28125 353.03125 C 421.980469 353.15625 421.667969 353.21875 421.339844 353.21875 Z M 311.226562 348.289062 L 418.875 348.289062 L 418.875 304.171875 L 311.226562 304.171875 Z M 311.226562 348.289062 " fill-opacity="1" fill-rule="nonzero"/><path fill="#ffffff" d="M 218.019531 304.160156 C 217.75 304.160156 217.480469 304.132812 217.21875 304.082031 C 216.953125 304.027344 216.695312 303.949219 216.445312 303.847656 C 216.199219 303.746094 215.960938 303.617188 215.738281 303.46875 C 215.511719 303.316406 215.304688 303.148438 215.113281 302.957031 C 214.925781 302.765625 214.753906 302.558594 214.605469 302.335938 C 214.453125 302.109375 214.328125 301.875 214.222656 301.625 C 214.121094 301.375 214.042969 301.117188 213.992188 300.851562 C 213.9375 300.589844 213.910156 300.320312 213.910156 300.050781 L 213.910156 288.613281 C 213.910156 288.34375 213.9375 288.078125 213.992188 287.8125 C 214.042969 287.546875 214.121094 287.292969 214.222656 287.042969 C 214.328125 286.792969 214.453125 286.554688 214.605469 286.332031 C 214.753906 286.109375 214.925781 285.898438 215.113281 285.710938 C 215.304688 285.519531 215.511719 285.347656 215.738281 285.199219 C 215.960938 285.046875 216.199219 284.921875 216.445312 284.820312 C 216.695312 284.714844 216.953125 284.636719 217.21875 284.585938 C 217.480469 284.53125 217.75 284.503906 218.019531 284.503906 C 218.289062 284.503906 218.554688 284.53125 218.820312 284.585938 C 219.085938 284.636719 219.339844 284.714844 219.589844 284.820312 C 219.839844 284.921875 220.078125 285.046875 220.300781 285.199219 C 220.523438 285.347656 220.734375 285.519531 220.921875 285.710938 C 221.113281 285.898438 221.285156 286.109375 221.433594 286.332031 C 221.582031 286.554688 221.710938 286.792969 221.8125 287.042969 C 221.917969 287.292969 221.996094 287.546875 222.046875 287.8125 C 222.101562 288.078125 222.125 288.34375 222.125 288.613281 L 222.125 290.222656 L 233.738281 290.222656 C 234.007812 290.222656 234.273438 290.25 234.539062 290.304688 C 234.804688 290.355469 235.058594 290.433594 235.308594 290.535156 C 235.558594 290.640625 235.796875 290.765625 236.019531 290.917969 C 236.242188 291.066406 236.449219 291.238281 236.640625 291.425781 C 236.832031 291.617188 237.003906 291.824219 237.152344 292.050781 C 237.300781 292.273438 237.429688 292.511719 237.53125 292.761719 C 237.636719 293.007812 237.714844 293.265625 237.765625 293.53125 C 237.820312 293.796875 237.84375 294.0625 237.84375 294.332031 C 237.84375 294.601562 237.820312 294.871094 237.765625 295.132812 C 237.714844 295.398438 237.636719 295.65625 237.53125 295.90625 C 237.429688 296.15625 237.300781 296.390625 237.152344 296.617188 C 237.003906 296.839844 236.832031 297.046875 236.640625 297.238281 C 236.449219 297.429688 236.242188 297.601562 236.019531 297.75 C 235.796875 297.898438 235.558594 298.027344 235.308594 298.128906 C 235.058594 298.234375 234.804688 298.308594 234.539062 298.363281 C 234.273438 298.414062 234.007812 298.441406 233.738281 298.441406 L 222.125 298.441406 L 222.125 300.054688 C 222.125 300.324219 222.101562 300.589844 222.046875 300.855469 C 221.996094 301.117188 221.917969 301.375 221.8125 301.625 C 221.710938 301.875 221.582031 302.109375 221.433594 302.335938 C 221.285156 302.558594 221.113281 302.765625 220.921875 302.957031 C 220.730469 303.148438 220.523438 303.320312 220.300781 303.46875 C 220.078125 303.617188 219.839844 303.746094 219.589844 303.847656 C 219.339844 303.953125 219.085938 304.027344 218.820312 304.082031 C 218.554688 304.132812 218.289062 304.160156 218.019531 304.160156 Z M 218.019531 304.160156 " fill-opacity="1" fill-rule="nonzero"/><path fill="#ffffff" d="M 321.472656 314.976562 C 321.472656 313.300781 323.035156 311.945312 324.960938 311.945312 L 330.957031 311.945312 C 332.375 311.921875 333.785156 311.992188 335.191406 312.164062 C 336.269531 312.347656 337.261719 312.746094 338.164062 313.359375 C 339.195312 314.027344 339.980469 314.910156 340.519531 316.011719 C 341.109375 317.199219 341.390625 318.460938 341.371094 319.789062 C 341.371094 323.066406 339.957031 325.375 337.125 326.707031 L 340.78125 334.265625 C 341.679688 336.125 340.109375 338.183594 337.789062 338.183594 C 336.394531 338.183594 335.15625 337.410156 334.710938 336.261719 L 331.417969 327.804688 L 328.105469 327.804688 L 328.105469 335.296875 C 328.105469 336.890625 326.621094 338.183594 324.789062 338.183594 C 322.957031 338.183594 321.472656 336.890625 321.472656 335.296875 Z M 328.105469 316.191406 L 328.105469 323.554688 L 331.023438 323.554688 C 333.617188 323.554688 334.914062 322.292969 334.914062 319.769531 C 334.949219 318.996094 334.757812 318.28125 334.339844 317.625 C 334.011719 317.109375 333.566406 316.730469 333.003906 316.492188 C 332.273438 316.257812 331.523438 316.160156 330.757812 316.195312 Z M 328.105469 316.191406 " fill-opacity="1" fill-rule="nonzero"/><path fill="#ffffff" d="M 350.417969 311.945312 L 361.910156 311.945312 C 363.339844 311.945312 364.496094 312.953125 364.496094 314.195312 C 364.496094 315.4375 363.339844 316.441406 361.910156 316.441406 L 352.78125 316.441406 L 352.78125 322.535156 L 359.300781 322.535156 C 360.730469 322.535156 361.890625 323.542969 361.890625 324.785156 C 361.890625 326.027344 360.730469 327.035156 359.300781 327.035156 L 352.78125 327.035156 L 352.78125 333.492188 L 361.910156 333.492188 C 363.339844 333.492188 364.496094 334.5 364.496094 335.742188 L 364.496094 335.933594 C 364.496094 337.175781 363.339844 338.183594 361.910156 338.183594 L 348.972656 338.183594 C 347.410156 338.183594 346.144531 337.082031 346.144531 335.726562 L 346.144531 315.65625 C 346.148438 313.609375 348.058594 311.945312 350.417969 311.945312 Z M 350.417969 311.945312 " fill-opacity="1" fill-rule="nonzero"/><path fill="#ffffff" d="M 371.917969 311.945312 C 373.703125 311.945312 375.3125 312.878906 375.996094 314.3125 L 382.628906 328.246094 L 382.628906 314.175781 C 382.628906 312.945312 383.777344 311.945312 385.191406 311.945312 C 386.609375 311.945312 387.757812 312.945312 387.757812 314.175781 L 387.757812 335.089844 C 387.757812 336.796875 386.164062 338.183594 384.195312 338.183594 C 383.515625 338.203125 382.878906 338.042969 382.285156 337.703125 C 381.695312 337.363281 381.238281 336.890625 380.914062 336.289062 L 372.632812 319.191406 L 372.632812 335.953125 C 372.632812 337.1875 371.484375 338.183594 370.070312 338.183594 C 368.652344 338.183594 367.503906 337.1875 367.503906 335.953125 L 367.503906 315.78125 C 367.503906 313.664062 369.480469 311.945312 371.917969 311.945312 Z M 371.917969 311.945312 " fill-opacity="1" fill-rule="nonzero"/><path fill="#ffffff" d="M 392.644531 311.945312 L 405.796875 311.945312 C 407.359375 311.945312 408.628906 313.046875 408.628906 314.40625 C 408.628906 315.765625 407.359375 316.867188 405.796875 316.867188 L 402.460938 316.867188 L 402.460938 335.300781 C 402.460938 336.890625 400.976562 338.183594 399.144531 338.183594 C 397.3125 338.183594 395.828125 336.890625 395.828125 335.300781 L 395.828125 316.867188 L 392.644531 316.867188 C 391.078125 316.867188 389.8125 315.765625 389.8125 314.40625 C 389.8125 313.046875 391.078125 311.945312 392.644531 311.945312 Z M 392.644531 311.945312 " fill-opacity="1" fill-rule="nonzero"/><path fill="#97bf0f" d="M 351.644531 350.753906 L 378.453125 350.753906 L 378.453125 402.484375 L 351.644531 402.484375 Z M 351.644531 350.753906 " fill-opacity="1" fill-rule="nonzero"/><path fill="#ffffff" d="M 378.453125 404.949219 L 351.644531 404.949219 C 351.316406 404.949219 351.003906 404.886719 350.699219 404.761719 C 350.398438 404.636719 350.132812 404.457031 349.902344 404.226562 C 349.671875 403.996094 349.492188 403.730469 349.367188 403.425781 C 349.242188 403.125 349.179688 402.808594 349.179688 402.484375 L 349.179688 350.753906 C 349.179688 350.429688 349.242188 350.113281 349.367188 349.8125 C 349.492188 349.507812 349.671875 349.242188 349.902344 349.011719 C 350.132812 348.78125 350.398438 348.601562 350.699219 348.476562 C 351.003906 348.351562 351.316406 348.289062 351.644531 348.289062 L 378.453125 348.289062 C 378.78125 348.289062 379.09375 348.351562 379.394531 348.476562 C 379.699219 348.601562 379.964844 348.78125 380.195312 349.011719 C 380.425781 349.242188 380.605469 349.507812 380.730469 349.8125 C 380.855469 350.113281 380.917969 350.429688 380.917969 350.753906 L 380.917969 402.484375 C 380.917969 402.808594 380.855469 403.125 380.730469 403.425781 C 380.605469 403.730469 380.425781 403.996094 380.195312 404.226562 C 379.964844 404.457031 379.699219 404.636719 379.394531 404.761719 C 379.09375 404.886719 378.78125 404.949219 378.453125 404.949219 Z M 354.109375 400.019531 L 375.988281 400.019531 L 375.988281 353.21875 L 354.109375 353.21875 Z M 354.109375 400.019531 " fill-opacity="1" fill-rule="nonzero"/></svg>